<?xml version="1.0" standalone="no"?>
<!DOCTYPE svg PUBLIC "-//W3C//DTD SVG 20010904//EN"
 "http://www.w3.org/TR/2001/REC-SVG-20010904/DTD/svg10.dtd">
<svg version="1.0" xmlns="http://www.w3.org/2000/svg"
 width="500.000000pt" height="500.000000pt" viewBox="0 0 500.000000 500.000000"
 preserveAspectRatio="xMidYMid meet">

<g transform="translate(0.000000,500.000000) scale(0.100000,-0.100000)"
fill="#000000" stroke="none">
<path d="M234 4981 c-100 -36 -163 -94 -207 -189 -20 -42 -22 -67 -25 -244
l-3 -197 1363 -4 c1247 -3 1372 -5 1468 -21 253 -42 395 -85 575 -171 589
-284 915 -845 915 -1574 -1 -853 -496 -1505 -1293 -1702 -169 -42 -308 -58
-544 -66 l-203 -6 0 322 0 321 193 0 c281 0 452 30 622 109 250 116 418 304
507 566 49 145 68 267 68 444 0 629 -299 1020 -859 1122 -96 17 -159 19 -758
19 l-653 0 0 -89 0 -90 653 -4 c625 -3 655 -4 727 -24 239 -67 403 -180 521
-361 193 -295 206 -770 28 -1087 -95 -168 -269 -308 -464 -371 -123 -40 -233
-54 -417 -54 l-168 0 0 109 0 109 188 5 c145 4 206 10 271 26 185 47 332 162
409 321 55 112 72 181 79 320 17 343 -104 589 -350 709 -159 79 -114 75 -952
81 l-750 5 0 310 0 310 780 0 c851 0 841 0 1050 -60 348 -101 627 -339 765
-653 164 -371 170 -870 16 -1247 -141 -347 -438 -603 -806 -694 -102 -25 -268
-51 -330 -51 -25 0 -69 -3 -97 -6 l-53 -7 0 -88 0 -89 63 0 c225 0 542 77 750
182 269 134 502 369 626 631 164 346 203 786 105 1186 -140 570 -536 927
-1169 1054 -110 22 -114 22 -1493 25 l-1382 3 2 -1933 3 -1933 27 -57 c32 -70
96 -133 168 -167 l55 -26 644 -3 644 -3 -6 528 c-4 290 -8 935 -9 1433 l-2
905 112 3 112 3 0 -393 c0 -216 3 -862 7 -1436 l6 -1042 1491 2 1491 3 57 28
c83 41 153 121 178 205 20 66 20 84 18 2282 -3 2130 -4 2217 -22 2263 -25 66
-105 150 -174 184 l-57 28 -2230 2 c-2137 2 -2232 2 -2281 -16z m1161 -2123
c2 -7 6 -471 10 -1030 l6 -1018 -110 0 c-61 0 -111 1 -112 3 -3 14 -16 2043
-13 2049 9 14 214 10 219 -4z m709 -80 c3 -51 8 -513 10 -1025 l5 -933 -63 0
c-35 0 -84 -3 -109 -6 l-45 -6 -6 53 c-3 30 -8 494 -10 1032 l-6 977 109 0
109 0 6 -92z"/>
</g>
</svg>
